<?xml version="1.0" encoding="utf-8"?>

<!DOCTYPE svg PUBLIC "-//W3C//DTD SVG 1.0//EN" "http://www.w3.org/TR/2001/REC-SVG-20010904/DTD/svg10.dtd">
<!-- Uploaded to: SVG Repo, www.svgrepo.com, Generator: SVG Repo Mixer Tools -->
<svg version="1.0" id="Layer_1" xmlns="http://www.w3.org/2000/svg" xmlns:xlink="http://www.w3.org/1999/xlink" 
	 width="800px" height="800px" viewBox="0 0 64 64" enable-background="new 0 0 64 64" xml:space="preserve">
<g>
	<circle fill="#231F20" cx="20" cy="12" r="1"/>
	<path fill="#231F20" d="M63.585,29.188c-0.262-0.188-0.598-0.241-0.901-0.137L52,32.612V26c0-2.211-1.789-4-4-4h-4.372
		C46.864,19.852,49,16.177,49,12c0-6.629-5.374-12-12-12c-4.923,0-9.149,2.968-11,7.211C24.149,2.968,19.923,0,15,0
		C8.374,0,3,5.371,3,12c0,4.177,2.136,7.852,5.372,10H4c-2.211,0-4,1.789-4,4v34c0,2.211,1.789,4,4,4h44c2.211,0,4-1.789,4-4v-6.613
		l10.684,3.562C62.787,56.983,62.894,57,63,57c0.207,0,0.412-0.064,0.585-0.188C63.846,56.623,64,56.321,64,56V30
		C64,29.679,63.846,29.377,63.585,29.188z M37,49c0,0.552-0.447,1-1,1H16c-0.553,0-1-0.448-1-1V37c0-0.552,0.447-1,1-1h20
		c0.553,0,1,0.448,1,1V49z M12,17c0-1.656,1.344-3,3-3s3,1.344,3,3s-1.344,3-3,3S12,18.656,12,17z M34,17c0-1.656,1.344-3,3-3
		s3,1.344,3,3s-1.344,3-3,3S34,18.656,34,17z M45,12c0,1.656-1.344,3-3,3s-3-1.344-3-3s1.344-3,3-3S45,10.344,45,12z M37,4
		c1.656,0,3,1.344,3,3s-1.344,3-3,3s-3-1.344-3-3S35.344,4,37,4z M32,9c1.656,0,3,1.344,3,3s-1.344,3-3,3s-3-1.344-3-3
		S30.344,9,32,9z M26,16.789c0.929,2.131,2.456,3.938,4.372,5.211h-8.744C23.544,20.728,25.071,18.92,26,16.789z M23,12
		c0,1.656-1.344,3-3,3s-3-1.344-3-3s1.344-3,3-3S23,10.344,23,12z M15,4c1.656,0,3,1.344,3,3s-1.344,3-3,3s-3-1.344-3-3
		S13.344,4,15,4z M7,12c0-1.656,1.344-3,3-3s3,1.344,3,3s-1.344,3-3,3S7,13.656,7,12z M58,53.279l-6-2V34.72l6-1.999V53.279z
		 M62,54.612l-2-0.667V32.055l2-0.667V54.612z"/>
	<circle fill="#231F20" cx="15" cy="17" r="1"/>
	<circle fill="#231F20" cx="10" cy="12" r="1"/>
	<circle fill="#231F20" cx="15" cy="7" r="1"/>
	<circle fill="#231F20" cx="37" cy="17" r="1"/>
	<circle fill="#231F20" cx="37" cy="7" r="1"/>
	<circle fill="#231F20" cx="32" cy="12" r="1"/>
	<circle fill="#231F20" cx="42" cy="12" r="1"/>
	<rect x="17" y="38" fill="#231F20" width="18" height="10"/>
</g>
</svg>